<?xml version="1.0" encoding="UTF-8"?>
<svg version="1.1" viewBox="0 0 432 121" xmlns="http://www.w3.org/2000/svg">
<title>Artboard</title>
<g fill="none" fill-rule="evenodd">
<g fill-rule="nonzero">
<polygon id="Path" points="0 116 0 2 20.18 8.7513 24.403 59 27.747 10.837 48 16.115 48 103.43 34.64 106.19 34.64 48.457 29.096 107.5 19.182 110.11 13.786 47.801 13.786 111.67" fill="#FF6C2C"/>
<path id="Path" d="m52 17v84s17.541-3.291 28-4.3203v-14.643l-11.815 1.1453v-16.339h10.172v-14.353h-10.202v-15.455l10.443 1.0148v-16.672c0.01507 0-8.6502-0.50742-26.598-4.3783z" fill="#FF6C2C"/>
<path id="Path" d="m81 21v16.979l8.9611 0.91302v57.108s13.58-2.1795 16.078-2.1795v-53.353l8.9611 0.89829v-16.037s-21.481-2.0469-34-4.3295z" fill="#FF6C2C"/>
<path id="Shape" d="m309 93.456s12.607 1.3192 14.35 1.5538l1.191-12.547 8.0465 0.74757 1.1619 12.929 15.251 1.8616-10.675-77s-16.107 2.0815-18.838 2.2427l-10.487 70.213zm16.543-21.665 2.4401-26.385 3.6747 26.825-6.1147-0.43975z" fill="#FF6C2C"/>
<path id="Path" d="m268.07 26.45s9.011 0.22277 15.376-0.41584v23.361h5.3508v-23.851s11.334-0.80198 15.2-1.5446v69s-10.319-1.0693-15.17-1.4554v-27.653h-5.4537v27.624h-15.376l0.073499-65.064z" fill="#FF6C2C"/>
<path id="Path" d="m351.05 17.988v-0.01s-0.225 0.09 0 0.01z" fill="#FF6C2C"/>
<path id="a" d="m379.09 53.554s5.2222-4.0765 5.2222-9.8272v-20.193s-0.075031-12.273-18.608-8.9683c-10.429 1.8635-13.776 2.4313-14.706 2.5915v79.739s9.2889 1.2957 14.136 2.4168l-0.060025-40.328s7.4431-0.77162 7.4431 11.225v30.486s10.88 2.2566 14.481 3.3049v-33.718c-0.015006 0-0.015006-12.783-7.9083-16.728zm-14.091-6.0128v-20.921s6.3026-3.1302 6.3026 7.6725c0 8.2985-0.39016 13.249-6.3026 13.249z" fill="#FF6C2C"/>
<path id="Path" d="m390 10.886v96.005s11.383 3.0475 14.616 4.3307v-46.836l10.01 49.621s12.151 3.6016 16.373 5.993l-14.336-68.898 9.6115-50.102-11.457 4.0245-3.2924 0.99155-6.9096 38.889v-37.329c0.029528 0-8.4156 2.508-14.616 3.31z" fill="#FF6C2C"/>
<path id="b" d="m206.99 121c4.9066-26.678-14.253-34.294-24.431-34.762 12.5-7.6307 22.182-1.725 24.27 0.4824 2.0882 2.1927 3.6362 1.6957 11.96-2.8652 8.3238-4.5609 13.683-16.007 1.9568-26.547-9.3752-8.4493-27.556-8.7271-35.471-7.8207-6.513 4.2393-5.0673 13.727-3.534 17.951-12.617 0.35084-18.079-13.317-19.232-20.202-21.613-4.7948-30.681-17.542-32.507-23.316 31.543-13.946 53.666-14.077 60.793-12.396 21.978-17.206 36.113-11.402 40.436-6.3589-8.2216-1.111-14.983 9.0779-17.334 14.311 6.4838 1.1548 23.657 13.99 26.811 38.694 3.1397 24.705-19.816 28.506-24.475 32.204-4.6584 3.6984-2.1321 4.5024-0.55492 12.089 1.2559 6.0666-5.2717 14.896-8.6889 18.536z" fill="#18CBC7"/>
<path d="m126.86 25.386-6.1777-0.38552-7.6815 68c1.4596-0.17793 15.009-1.4235 15.009-1.4235l1.0616-11.655h6.8264l1.5776 11.121c1.7693-0.23724 15.525-0.75621 15.525-0.75621l-7.3424-47.123c-10.63-5.5456-16.41-12.826-18.798-17.778zm3.1404 43.43 2.4917-26.69 2.477 26.69h-4.9687z" fill="#FF6C2C"/>
<path d="m263.98 69.279c-0.014584-2.0592-0.4375-4.0893-1.2542-5.989-0.81666-1.8996-2.0125-3.6108-3.5145-5.0319-0.78749-0.75406-1.6333-1.4356-2.5375-2.0592-2.7125-1.8561-11.681-7.2506-12.41-8.3237-1.9104-2.8422-1.0646-7.8886-1.0646-7.8886 0.072916-0.60905 0.36458-1.1601 0.83124-1.5661s1.05-0.62355 1.6625-0.62355c2.0562-0.072506 2.5666 1.8561 2.6541 2.2767v0.14501 6.917h14.35c1.4-12.79-5.7458-17.343-6.3437-17.778-0.59791-0.43503-5.4395-3.1467-15.094-2.1317-3.602 0.37703-6.0958 1.6096-7.8603 3.0742 4.9145 6.7575 9.1582 15.821 10.587 27.19 0.35 2.6102 0.40833 5.2349 0.18958 7.8596 1.75 1.1021 3.3104 2.3492 4.1562 3.8283 0.61249 1.0441 0.72916 2.0157 0.75832 3.2338 0.11666 6.395 0.18958 8.4252-2.45 8.4252-2.8729 0-2.6979-3.4948-2.6979-3.4948v-9.1647h-0.175c-1.6041 8.1061-6.5333 13.196-11.769 16.676 0.74374 1.4211 1.8521 2.6102 3.2375 3.4368 7.1457 4.0313 16.494 2.7552 20.883 1.3196 7.3207-2.4072 8.0207-11.644 7.8603-20.331z" fill="#FF6C2C"/>
</g>
</g>
</svg>
